<svg viewBox="0 0 1400 1150" xmlns="http://www.w3.org/2000/svg" font-family="Segoe UI, Arial, sans-serif">
  <defs>
    <marker id="dp1" markerWidth="8" markerHeight="8" refX="7" refY="3" orient="auto"><path d="M0,0 L0,6 L7,3z" fill="#334155"/></marker>
    <marker id="dp2" markerWidth="8" markerHeight="8" refX="7" refY="3" orient="auto"><path d="M0,0 L0,6 L7,3z" fill="#7c3aed"/></marker>
  </defs>

  <text x="700" y="25" font-size="18" font-weight="bold" text-anchor="middle" fill="#0f172a">Deployment Diagram — Production Architecture</text>
  <text x="700" y="44" font-size="11" text-anchor="middle" fill="#64748b">Physical nodes, Docker containers, network segmentation, and security boundaries</text>

  <!-- ══════════════════════════════════════════════ -->
  <!-- NODE: Corporate Laptops (multiple)             -->
  <!-- ══════════════════════════════════════════════ -->
  <g transform="translate(30, 65)">
    <!-- 3D node box -->
    <path d="M 0,20 L 15,5 L 315,5 L 315,135 L 300,150 L 0,150 Z" fill="#eff6ff" stroke="#2563eb" stroke-width="2"/>
    <path d="M 315,5 L 300,20 L 0,20" fill="#dbeafe" stroke="#2563eb" stroke-width="2"/>
    <path d="M 315,5 L 315,135 L 300,150 L 300,20" fill="#dbeafe" stroke="#2563eb" stroke-width="2"/>

    <text x="150" y="42" font-size="11" font-weight="bold" text-anchor="middle" fill="#1e3a8a">«device» Corporate Laptop</text>
    <text x="150" y="56" font-size="9" text-anchor="middle" fill="#3b82f6">Windows 10/11 • ×N endpoints</text>

    <rect x="15" y="65" width="130" height="35" rx="4" fill="white" stroke="#60a5fa" stroke-width="1.5"/>
    <text x="80" y="80" font-size="9" font-weight="bold" text-anchor="middle" fill="#1e40af">«component»</text>
    <text x="80" y="93" font-size="9" text-anchor="middle" fill="#1e40af">Sysmon v15</text>

    <rect x="155" y="65" width="130" height="35" rx="4" fill="white" stroke="#60a5fa" stroke-width="1.5"/>
    <text x="220" y="80" font-size="9" font-weight="bold" text-anchor="middle" fill="#1e40af">«component»</text>
    <text x="220" y="93" font-size="9" text-anchor="middle" fill="#1e40af">Wazuh Agent 4.7</text>

    <rect x="15" y="108" width="270" height="30" rx="4" fill="#fee2e2" stroke="#dc2626" stroke-width="1"/>
    <text x="150" y="128" font-size="8" text-anchor="middle" fill="#991b1b">🔒 PII anonymization in ossec.conf • Encrypted transport AES-256</text>
  </g>

  <!-- ═══ NETWORK: agent-net ═══ -->
  <rect x="30" y="230" width="1340" height="30" rx="5" fill="#fef9c3" stroke="#eab308" stroke-width="2"/>
  <text x="700" y="250" font-size="10" font-weight="bold" text-anchor="middle" fill="#854d0e">«network» agent-net — Wazuh Agent Communication (Port 1514/TCP, AES-256 encrypted)</text>

  <!-- Arrow: Laptop → agent-net -->
  <line x1="180" y1="220" x2="180" y2="228" stroke="#2563eb" stroke-width="2" marker-end="url(#dp1)"/>

  <!-- ══════════════════════════════════════════════ -->
  <!-- NODE: Enterprise Central Server                -->
  <!-- ══════════════════════════════════════════════ -->
  <g transform="translate(30, 275)">
    <path d="M 0,20 L 15,5 L 1325,5 L 1325,590 L 1310,605 L 0,605 Z" fill="#f0fdf4" stroke="#16a34a" stroke-width="2.5"/>
    <path d="M 1325,5 L 1310,20 L 0,20" fill="#dcfce7" stroke="#16a34a" stroke-width="2"/>
    <path d="M 1325,5 L 1325,590 L 1310,605 L 1310,20" fill="#dcfce7" stroke="#16a34a" stroke-width="2"/>

    <text x="660" y="42" font-size="13" font-weight="bold" text-anchor="middle" fill="#14532d">«server» Enterprise Central Server</text>
    <text x="660" y="58" font-size="10" text-anchor="middle" fill="#166534">Ubuntu 22.04 LTS • 32GB RAM • 8 cores • Docker Compose deployment</text>
    <text x="660" y="73" font-size="9" text-anchor="middle" fill="#dc2626">🔒 Security: read-only containers • non-root • no-new-privileges • cap_drop ALL • resource limits</text>

    <!-- ── Docker: Wazuh Manager ── -->
    <rect x="20" y="85" width="280" height="170" rx="8" fill="white" stroke="#d97706" stroke-width="2"/>
    <text x="160" y="102" font-size="10" font-weight="bold" text-anchor="middle" fill="#92400e">«container» wazuh-manager</text>
    <text x="160" y="116" font-size="8" text-anchor="middle" fill="#b45309">wazuh/wazuh-manager:4.7.0</text>

    <rect x="30" y="125" width="120" height="28" rx="3" fill="#fde68a" stroke="#f59e0b" stroke-width="1"/>
    <text x="90" y="143" font-size="8" text-anchor="middle" fill="#78350f">Log Aggregation</text>

    <rect x="160" y="125" width="130" height="28" rx="3" fill="#fde68a" stroke="#f59e0b" stroke-width="1"/>
    <text x="225" y="143" font-size="8" text-anchor="middle" fill="#78350f">Rule Correlation</text>

    <rect x="30" y="160" width="260" height="28" rx="3" fill="#fde68a" stroke="#f59e0b" stroke-width="1"/>
    <text x="160" y="178" font-size="8" text-anchor="middle" fill="#78350f">REST API :55000 «HTTPS, JWT»</text>

    <rect x="30" y="195" width="260" height="25" rx="3" fill="white" stroke="#d97706" stroke-width="1"/>
    <text x="160" y="212" font-size="8" text-anchor="middle" fill="#92400e">Ports: 1514 (agents), 1515 (reg), 55000 (API)</text>

    <rect x="30" y="225" width="260" height="22" rx="3" fill="#e2e8f0" stroke="#94a3b8" stroke-width="1"/>
    <text x="160" y="240" font-size="8" text-anchor="middle" fill="#475569">Vol: wazuh-data, wazuh-etc</text>

    <!-- ── Docker: Wazuh Indexer ── -->
    <rect x="20" y="265" width="280" height="80" rx="8" fill="white" stroke="#d97706" stroke-width="2"/>
    <text x="160" y="282" font-size="10" font-weight="bold" text-anchor="middle" fill="#92400e">«container» wazuh-indexer</text>
    <text x="160" y="296" font-size="8" text-anchor="middle" fill="#b45309">wazuh/wazuh-indexer:4.7.0 (OpenSearch)</text>
    <rect x="30" y="305" width="260" height="28" rx="3" fill="#fde68a" stroke="#f59e0b" stroke-width="1"/>
    <text x="160" y="323" font-size="8" text-anchor="middle" fill="#78350f">Event storage • 30-90 day retention • 1TB</text>

    <!-- ── Docker: Wazuh Dashboard ── -->
    <rect x="20" y="355" width="280" height="65" rx="8" fill="white" stroke="#d97706" stroke-width="2"/>
    <text x="160" y="372" font-size="10" font-weight="bold" text-anchor="middle" fill="#92400e">«container» wazuh-dashboard</text>
    <text x="160" y="386" font-size="8" text-anchor="middle" fill="#b45309">wazuh/wazuh-dashboard:4.7.0</text>
    <text x="160" y="400" font-size="9" text-anchor="middle" fill="#92400e">Port :5601 — SOC analysts access here</text>
    <text x="160" y="414" font-size="7" text-anchor="middle" fill="#dc2626">🔒 «HTTPS»</text>

    <!-- ── Docker: AI Platform API ── -->
    <rect x="320" y="85" width="350" height="260" rx="8" fill="white" stroke="#16a34a" stroke-width="2.5"/>
    <text x="495" y="102" font-size="10" font-weight="bold" text-anchor="middle" fill="#14532d">«container» api (AI Platform)</text>
    <text x="495" y="116" font-size="8" text-anchor="middle" fill="#166534">Python 3.11 • FastAPI • XGBoost</text>

    <rect x="330" y="125" width="155" height="28" rx="3" fill="#bbf7d0" stroke="#4ade80" stroke-width="1"/>
    <text x="407" y="143" font-size="8" text-anchor="middle" fill="#14532d">Ingestion Module</text>
    <rect x="495" y="125" width="165" height="28" rx="3" fill="#bbf7d0" stroke="#4ade80" stroke-width="1"/>
    <text x="577" y="143" font-size="8" text-anchor="middle" fill="#14532d">Feature Pipeline (6 extractors)</text>

    <rect x="330" y="160" width="155" height="28" rx="3" fill="#bbf7d0" stroke="#4ade80" stroke-width="1"/>
    <text x="407" y="178" font-size="8" text-anchor="middle" fill="#14532d">Detection Engine</text>
    <rect x="495" y="160" width="165" height="28" rx="3" fill="#bbf7d0" stroke="#4ade80" stroke-width="1"/>
    <text x="577" y="178" font-size="8" text-anchor="middle" fill="#14532d">Threat Intel Enricher</text>

    <rect x="330" y="195" width="155" height="28" rx="3" fill="#bbf7d0" stroke="#4ade80" stroke-width="1"/>
    <text x="407" y="213" font-size="8" text-anchor="middle" fill="#14532d">Alert Manager + Store</text>
    <rect x="495" y="195" width="165" height="28" rx="3" fill="#bbf7d0" stroke="#4ade80" stroke-width="1"/>
    <text x="577" y="213" font-size="8" text-anchor="middle" fill="#14532d">Event Bus (async)</text>

    <rect x="330" y="230" width="330" height="25" rx="3" fill="#fee2e2" stroke="#dc2626" stroke-width="1"/>
    <text x="495" y="247" font-size="8" text-anchor="middle" fill="#991b1b">🔒 Auth (JWT+RBAC) • Audit (hash-chain) • Model Integrity (HMAC)</text>

    <rect x="330" y="262" width="330" height="22" rx="3" fill="white" stroke="#16a34a" stroke-width="1"/>
    <text x="495" y="277" font-size="8" text-anchor="middle" fill="#14532d">Port :8000 • Vol: config(ro), models(ro), platform-data</text>

    <rect x="330" y="290" width="330" height="22" rx="3" fill="#e2e8f0" stroke="#94a3b8" stroke-width="1"/>
    <text x="495" y="305" font-size="7.5" text-anchor="middle" fill="#475569">read_only: true • user: 1000 • cap_drop: ALL • mem: 2G • cpu: 2.0</text>

    <!-- ── Docker: Visualization ── -->
    <rect x="320" y="355" width="350" height="65" rx="8" fill="white" stroke="#16a34a" stroke-width="2"/>
    <text x="495" y="372" font-size="10" font-weight="bold" text-anchor="middle" fill="#14532d">«container» visualization</text>
    <text x="495" y="386" font-size="8" text-anchor="middle" fill="#166534">NetworkX + pyvis • Attack graph HTML</text>
    <text x="495" y="400" font-size="9" text-anchor="middle" fill="#14532d">Port :8080 — Standalone attack path viewer</text>
    <text x="495" y="414" font-size="7" text-anchor="middle" fill="#475569">read_only: true • mem: 512M</text>

    <!-- ── Docker: FL Server ── -->
    <rect x="690" y="85" width="300" height="120" rx="8" fill="white" stroke="#7c3aed" stroke-width="2.5"/>
    <text x="840" y="102" font-size="10" font-weight="bold" text-anchor="middle" fill="#5b21b6">«container» fl-server</text>
    <text x="840" y="116" font-size="8" text-anchor="middle" fill="#6d28d9">Flower Framework • Federated Bagging</text>

    <rect x="700" y="125" width="135" height="28" rx="3" fill="#ede9fe" stroke="#a78bfa" stroke-width="1"/>
    <text x="767" y="143" font-size="8" text-anchor="middle" fill="#5b21b6">Aggregation Engine</text>
    <rect x="845" y="125" width="135" height="28" rx="3" fill="#fee2e2" stroke="#dc2626" stroke-width="1"/>
    <text x="912" y="143" font-size="8" text-anchor="middle" fill="#991b1b">🔒 Trust Manager</text>

    <rect x="700" y="160" width="280" height="28" rx="3" fill="#ede9fe" stroke="#a78bfa" stroke-width="1"/>
    <text x="840" y="178" font-size="8" text-anchor="middle" fill="#5b21b6">Port :8888 (internal only — fl-net) • DP validation</text>

    <!-- ── Docker: FL Clients (×3) ── -->
    <rect x="690" y="220" width="300" height="200" rx="8" fill="white" stroke="#7c3aed" stroke-width="2"/>
    <text x="840" y="237" font-size="10" font-weight="bold" text-anchor="middle" fill="#5b21b6">«container» fl-clients (×3)</text>
    <text x="840" y="251" font-size="8" text-anchor="middle" fill="#6d28d9">Simulated organizations for FYP demo</text>

    <rect x="700" y="260" width="135" height="45" rx="4" fill="#f5f3ff" stroke="#a78bfa" stroke-width="1"/>
    <text x="767" y="278" font-size="8" font-weight="bold" text-anchor="middle" fill="#5b21b6">fl-client-udom</text>
    <text x="767" y="292" font-size="7" text-anchor="middle" fill="#6d28d9">partition_1 (real)</text>
    <text x="767" y="302" font-size="7" text-anchor="middle" fill="#6d28d9">50K events</text>

    <rect x="845" y="260" width="135" height="45" rx="4" fill="#f5f3ff" stroke="#a78bfa" stroke-width="1"/>
    <text x="912" y="278" font-size="8" font-weight="bold" text-anchor="middle" fill="#5b21b6">fl-client-hospital</text>
    <text x="912" y="292" font-size="7" text-anchor="middle" fill="#6d28d9">partition_2 (sim)</text>
    <text x="912" y="302" font-size="7" text-anchor="middle" fill="#6d28d9">30K events</text>

    <rect x="770" y="315" width="135" height="45" rx="4" fill="#f5f3ff" stroke="#a78bfa" stroke-width="1"/>
    <text x="837" y="333" font-size="8" font-weight="bold" text-anchor="middle" fill="#5b21b6">fl-client-bank</text>
    <text x="837" y="347" font-size="7" text-anchor="middle" fill="#6d28d9">partition_3 (sim) • 40K events</text>

    <rect x="700" y="368" width="280" height="28" rx="3" fill="#fee2e2" stroke="#dc2626" stroke-width="1"/>
    <text x="840" y="386" font-size="8" text-anchor="middle" fill="#991b1b">🔒 Data volumes mounted read-only • DP ε=1.0 enforced</text>

    <rect x="700" y="400" width="280" height="18" rx="3" fill="#e2e8f0" stroke="#94a3b8" stroke-width="1"/>
    <text x="840" y="413" font-size="7" text-anchor="middle" fill="#475569">read_only: true • user: 1000 • fl-net only</text>

    <!-- ── Volumes ── -->
    <g transform="translate(1010, 85)">
      <path d="M 10,0 Q 100,0 100,8 Q 100,16 10,16 Q -80,16 -80,8 Q -80,0 10,0" fill="#e2e8f0" stroke="#475569" stroke-width="1.5"/>
      <rect x="-80" y="8" width="180" height="30" fill="#e2e8f0" stroke="#475569" stroke-width="1.5"/>
      <path d="M 10,38 Q 100,38 100,30 Q 100,22 10,22 Q -80,22 -80,30 Q -80,38 10,38" fill="none" stroke="#475569" stroke-width="1.5"/>
      <text x="10" y="30" font-size="9" font-weight="bold" text-anchor="middle" fill="#334155">«volume»</text>
      <text x="10" y="5" font-size="8" text-anchor="middle" fill="#475569">wazuh-data</text>
    </g>
    <g transform="translate(1010, 160)">
      <path d="M 10,0 Q 100,0 100,8 Q 100,16 10,16 Q -80,16 -80,8 Q -80,0 10,0" fill="#e2e8f0" stroke="#475569" stroke-width="1.5"/>
      <rect x="-80" y="8" width="180" height="30" fill="#e2e8f0" stroke="#475569" stroke-width="1.5"/>
      <path d="M 10,38 Q 100,38 100,30" fill="none" stroke="#475569" stroke-width="1.5"/>
      <text x="10" y="30" font-size="9" font-weight="bold" text-anchor="middle" fill="#334155">«volume»</text>
      <text x="10" y="5" font-size="8" text-anchor="middle" fill="#475569">platform-data</text>
    </g>
    <g transform="translate(1010, 235)">
      <path d="M 10,0 Q 100,0 100,8 Q 100,16 10,16 Q -80,16 -80,8 Q -80,0 10,0" fill="#fee2e2" stroke="#dc2626" stroke-width="1.5"/>
      <rect x="-80" y="8" width="180" height="30" fill="#fee2e2" stroke="#dc2626" stroke-width="1.5"/>
      <path d="M 10,38 Q 100,38 100,30" fill="none" stroke="#dc2626" stroke-width="1.5"/>
      <text x="10" y="30" font-size="9" font-weight="bold" text-anchor="middle" fill="#991b1b">«volume»</text>
      <text x="10" y="5" font-size="8" text-anchor="middle" fill="#dc2626">model-data 🔒</text>
    </g>
    <text x="1030" y="310" font-size="7" text-anchor="middle" fill="#dc2626">HMAC-signed models</text>

    <!-- ══ INTERNAL NETWORKS ══ -->
    <rect x="20" y="430" width="650" height="25" rx="4" fill="#d1fae5" stroke="#16a34a" stroke-width="1.5"/>
    <text x="345" y="447" font-size="9" font-weight="bold" text-anchor="middle" fill="#14532d">«network» internal-net (bridge, internal: true — no external access)</text>

    <rect x="690" y="430" width="300" height="25" rx="4" fill="#ede9fe" stroke="#7c3aed" stroke-width="1.5"/>
    <text x="840" y="447" font-size="9" font-weight="bold" text-anchor="middle" fill="#5b21b6">«network» fl-net (bridge, internal: true)</text>

    <!-- Connection lines: containers to networks -->
    <line x1="160" y1="422" x2="160" y2="428" stroke="#d97706" stroke-width="1.5"/>
    <line x1="495" y1="422" x2="495" y2="428" stroke="#16a34a" stroke-width="1.5"/>
    <line x1="840" y1="422" x2="840" y2="428" stroke="#7c3aed" stroke-width="1.5"/>

    <!-- ── Docker Secrets ── -->
    <rect x="1010" y="340" width="290" height="115" rx="8" fill="white" stroke="#dc2626" stroke-width="2"/>
    <text x="1155" y="358" font-size="10" font-weight="bold" text-anchor="middle" fill="#991b1b">«secrets» Docker Secrets</text>
    <text x="1155" y="374" font-size="8" text-anchor="middle" fill="#dc2626">NOT in .env files — mounted read-only at /run/secrets/</text>

    <rect x="1020" y="382" width="270" height="18" rx="3" fill="#fecaca" stroke="#dc2626" stroke-width="1"/>
    <text x="1155" y="395" font-size="8" text-anchor="middle" fill="#991b1b">🔑 jwt_secret — API authentication signing key</text>
    <rect x="1020" y="404" width="270" height="18" rx="3" fill="#fecaca" stroke="#dc2626" stroke-width="1"/>
    <text x="1155" y="417" font-size="8" text-anchor="middle" fill="#991b1b">🔑 wazuh_api_password — Wazuh Manager creds</text>
    <rect x="1020" y="426" width="270" height="18" rx="3" fill="#fecaca" stroke="#dc2626" stroke-width="1"/>
    <text x="1155" y="439" font-size="8" text-anchor="middle" fill="#991b1b">🔑 model_signing_key — HMAC model integrity</text>
  </g>

  <!-- ══════════════════════════════════════════════ -->
  <!-- NODE: SOC Analyst Workstation                  -->
  <!-- ══════════════════════════════════════════════ -->
  <g transform="translate(30, 920)">
    <path d="M 0,20 L 15,5 L 280,5 L 280,90 L 265,105 L 0,105 Z" fill="#dbeafe" stroke="#2563eb" stroke-width="2"/>
    <path d="M 280,5 L 265,20 L 0,20" fill="#bfdbfe" stroke="#2563eb" stroke-width="2"/>
    <text x="140" y="42" font-size="11" font-weight="bold" text-anchor="middle" fill="#1e3a8a">«device» SOC Analyst Workstation</text>
    <rect x="15" y="52" width="120" height="28" rx="3" fill="white" stroke="#60a5fa" stroke-width="1"/>
    <text x="75" y="70" font-size="8" text-anchor="middle" fill="#1e40af">Browser (HTTPS)</text>
    <rect x="145" y="52" width="120" height="28" rx="3" fill="white" stroke="#60a5fa" stroke-width="1"/>
    <text x="205" y="70" font-size="8" text-anchor="middle" fill="#1e40af">API Client (JWT)</text>
    <text x="140" y="96" font-size="8" text-anchor="middle" fill="#3b82f6">Accesses: :5601 (Dashboard), :8080 (Viz), :8000 (API)</text>
  </g>

  <!-- ══ Network connections from analyst ══ -->
  <line x1="170" y1="920" x2="170" y2="900" stroke="#2563eb" stroke-width="2" marker-end="url(#dp1)"/>

  <!-- Access network -->
  <rect x="30" y="895" width="600" height="22" rx="4" fill="#dbeafe" stroke="#2563eb" stroke-width="1.5"/>
  <text x="330" y="910" font-size="9" font-weight="bold" text-anchor="middle" fill="#1e3a8a">«network» Campus LAN — HTTPS only • Ports: 5601, 8000, 8080</text>

  <line x1="170" y1="893" x2="170" y2="880" stroke="#2563eb" stroke-width="2" marker-end="url(#dp1)"/>

  <!-- ══════════════════════════════════════════════ -->
  <!-- NODE: External FL Orgs (future/production)     -->
  <!-- ══════════════════════════════════════════════ -->
  <g transform="translate(800, 920)">
    <path d="M 0,20 L 15,5 L 380,5 L 380,90 L 365,105 L 0,105 Z" fill="#faf5ff" stroke="#7c3aed" stroke-width="2" stroke-dasharray="6,3"/>
    <path d="M 380,5 L 365,20 L 0,20" fill="#ede9fe" stroke="#7c3aed" stroke-width="2" stroke-dasharray="6,3"/>
    <text x="190" y="42" font-size="11" font-weight="bold" text-anchor="middle" fill="#5b21b6">«device» External FL Orgs (Production Only)</text>
    <text x="190" y="58" font-size="9" text-anchor="middle" fill="#6d28d9">Each org runs own Wazuh + AI Platform + FL Client</text>
    <text x="190" y="74" font-size="9" text-anchor="middle" fill="#6d28d9">Connects to FL Server via encrypted gRPC</text>
    <text x="190" y="90" font-size="8" text-anchor="middle" fill="#dc2626">🔒 Only tree structures cross boundary — NO raw security data</text>
    <text x="190" y="103" font-size="8" text-anchor="middle" fill="#94a3b8">(For FYP: simulated as Docker containers on same server)</text>
  </g>

  <!-- Legend -->
  <rect x="30" y="1060" width="1340" height="70" rx="6" fill="#f8fafc" stroke="#94a3b8" stroke-width="1"/>
  <text x="50" y="1082" font-size="10" font-weight="bold" fill="#0f172a">Deployment Legend:</text>

  <path d="M 50,1098 L 65,1088 L 115,1088 L 115,1110 L 100,1120 L 50,1120 Z" fill="#eff6ff" stroke="#2563eb" stroke-width="1.5"/>
  <text x="130" y="1108" font-size="9" fill="#334155">Physical Node</text>

  <rect x="220" y="1092" width="60" height="22" rx="4" fill="white" stroke="#16a34a" stroke-width="1.5"/>
  <text x="290" y="1108" font-size="9" fill="#334155">Container</text>

  <path d="M 380,1095 Q 410,1095 410,1100 Q 410,1105 380,1105 Q 350,1105 350,1100 Q 350,1095 380,1095" fill="#e2e8f0" stroke="#475569" stroke-width="1"/>
  <text x="425" y="1108" font-size="9" fill="#334155">Volume</text>

  <rect x="490" y="1092" width="60" height="22" rx="4" fill="#d1fae5" stroke="#16a34a" stroke-width="1.5"/>
  <text x="560" y="1108" font-size="9" fill="#334155">Docker Network</text>

  <rect x="650" y="1092" width="60" height="22" rx="4" fill="#fee2e2" stroke="#dc2626" stroke-width="1.5"/>
  <text x="720" y="1108" font-size="9" fill="#334155">Security Component</text>

  <rect x="830" y="1092" width="60" height="22" rx="4" fill="#fecaca" stroke="#dc2626" stroke-width="1"/>
  <text x="900" y="1108" font-size="9" fill="#334155">Docker Secret</text>

  <rect x="990" y="1092" width="60" height="22" rx="4" fill="white" stroke="#7c3aed" stroke-width="1.5" stroke-dasharray="4,3"/>
  <text x="1060" y="1108" font-size="9" fill="#334155">Future / External</text>
</svg>
