<svg viewBox="0 0 1500 1350" xmlns="http://www.w3.org/2000/svg" font-family="Segoe UI, Arial, sans-serif">
  <defs>
    <marker id="ad1" markerWidth="8" markerHeight="8" refX="7" refY="3" orient="auto"><path d="M0,0 L0,6 L7,3z" fill="#334155"/></marker>
    <marker id="ad2" markerWidth="8" markerHeight="8" refX="7" refY="3" orient="auto"><path d="M0,0 L0,6 L7,3z" fill="#16a34a"/></marker>
    <marker id="ad3" markerWidth="8" markerHeight="8" refX="7" refY="3" orient="auto"><path d="M0,0 L0,6 L7,3z" fill="#dc2626"/></marker>
    <marker id="ad4" markerWidth="8" markerHeight="8" refX="7" refY="3" orient="auto"><path d="M0,0 L0,6 L7,3z" fill="#7c3aed"/></marker>
    <marker id="ad5" markerWidth="8" markerHeight="8" refX="0" refY="3" orient="auto"><path d="M7,0 L7,6 L0,3z" fill="#dc2626"/></marker>
  </defs>

  <!-- ══ TITLE ══ -->
  <text x="750" y="28" font-size="20" font-weight="bold" text-anchor="middle" fill="#0f172a">Architectural Design — Platform Integration in Enterprise Security Workflow</text>
  <text x="750" y="50" font-size="12" text-anchor="middle" fill="#64748b">How the AI Threat Hunting Platform augments existing detection systems — not a replacement, an enhancement layer</text>

  <!-- ════════════════════════════════════════════════════════════════ -->
  <!-- LAYER 1: ENTERPRISE NETWORK INFRASTRUCTURE (bottom)            -->
  <!-- ════════════════════════════════════════════════════════════════ -->
  <rect x="30" y="1100" width="1440" height="170" rx="10" fill="#f1f5f9" stroke="#64748b" stroke-width="2"/>
  <rect x="30" y="1100" width="1440" height="28" rx="10" fill="#64748b"/>
  <rect x="30" y="1120" width="1440" height="8" fill="#64748b"/>
  <text x="750" y="1120" font-size="14" font-weight="bold" text-anchor="middle" fill="white">LAYER 1: Enterprise Network Infrastructure</text>
  <text x="750" y="1138" font-size="10" text-anchor="middle" fill="#475569">Physical and logical assets generating security-relevant telemetry</text>

  <!-- Assets -->
  <rect x="55" y="1155" width="170" height="50" rx="6" fill="white" stroke="#94a3b8" stroke-width="1.5"/>
  <text x="140" y="1175" font-size="10" font-weight="bold" text-anchor="middle" fill="#334155">Windows Endpoints</text>
  <text x="140" y="1190" font-size="8" text-anchor="middle" fill="#64748b">Laptops, Workstations</text>
  <text x="140" y="1202" font-size="8" text-anchor="middle" fill="#64748b">10–10,000+ devices</text>

  <rect x="245" y="1155" width="170" height="50" rx="6" fill="white" stroke="#94a3b8" stroke-width="1.5"/>
  <text x="330" y="1175" font-size="10" font-weight="bold" text-anchor="middle" fill="#334155">Windows Servers</text>
  <text x="330" y="1190" font-size="8" text-anchor="middle" fill="#64748b">AD DC, File, Web, DB</text>

  <rect x="435" y="1155" width="170" height="50" rx="6" fill="white" stroke="#94a3b8" stroke-width="1.5"/>
  <text x="520" y="1175" font-size="10" font-weight="bold" text-anchor="middle" fill="#334155">Active Directory</text>
  <text x="520" y="1190" font-size="8" text-anchor="middle" fill="#64748b">Kerberos, LDAP, NTLM</text>
  <text x="520" y="1202" font-size="8" text-anchor="middle" fill="#64748b">Authentication hub</text>

  <rect x="625" y="1155" width="170" height="50" rx="6" fill="white" stroke="#94a3b8" stroke-width="1.5"/>
  <text x="710" y="1175" font-size="10" font-weight="bold" text-anchor="middle" fill="#334155">Network Devices</text>
  <text x="710" y="1190" font-size="8" text-anchor="middle" fill="#64748b">Switches, Routers</text>
  <text x="710" y="1202" font-size="8" text-anchor="middle" fill="#64748b">NetFlow, DNS servers</text>

  <rect x="815" y="1155" width="170" height="50" rx="6" fill="white" stroke="#94a3b8" stroke-width="1.5"/>
  <text x="900" y="1175" font-size="10" font-weight="bold" text-anchor="middle" fill="#334155">DNS Resolvers</text>
  <text x="900" y="1190" font-size="8" text-anchor="middle" fill="#64748b">Internal DNS servers</text>
  <text x="900" y="1202" font-size="8" text-anchor="middle" fill="#64748b">Query logs</text>

  <rect x="1005" y="1155" width="170" height="50" rx="6" fill="white" stroke="#94a3b8" stroke-width="1.5"/>
  <text x="1090" y="1175" font-size="10" font-weight="bold" text-anchor="middle" fill="#334155">Applications</text>
  <text x="1090" y="1190" font-size="8" text-anchor="middle" fill="#64748b">Email, ERP, Web Apps</text>

  <rect x="1195" y="1155" width="170" height="50" rx="6" fill="white" stroke="#94a3b8" stroke-width="1.5"/>
  <text x="1280" y="1175" font-size="10" font-weight="bold" text-anchor="middle" fill="#334155">Cloud / SaaS</text>
  <text x="1280" y="1190" font-size="8" text-anchor="middle" fill="#64748b">(if applicable)</text>

  <!-- ════════════════════════════════════════════════════════════════ -->
  <!-- LAYER 2: EXISTING SECURITY CONTROLS (perimeter + endpoint)     -->
  <!-- ════════════════════════════════════════════════════════════════ -->
  <rect x="30" y="920" width="1440" height="160" rx="10" fill="#fef9c3" stroke="#ca8a04" stroke-width="2"/>
  <rect x="30" y="920" width="1440" height="28" rx="10" fill="#ca8a04"/>
  <rect x="30" y="940" width="1440" height="8" fill="#ca8a04"/>
  <text x="750" y="940" font-size="14" font-weight="bold" text-anchor="middle" fill="white">LAYER 2: Existing Security Controls (Already Deployed)</text>
  <text x="750" y="958" font-size="10" text-anchor="middle" fill="#78350f">Rule-based, signature-based detection — effective against known threats, blind to novel APT techniques</text>

  <rect x="55" y="975" width="200" height="50" rx="6" fill="white" stroke="#ca8a04" stroke-width="1.5"/>
  <text x="155" y="995" font-size="10" font-weight="bold" text-anchor="middle" fill="#78350f">Firewall / NGFW</text>
  <text x="155" y="1010" font-size="8" text-anchor="middle" fill="#92400e">Perimeter defense, ACLs</text>
  <text x="155" y="1022" font-size="7" text-anchor="middle" fill="#a16207">Known bad IPs, port filtering</text>

  <rect x="275" y="975" width="200" height="50" rx="6" fill="white" stroke="#ca8a04" stroke-width="1.5"/>
  <text x="375" y="995" font-size="10" font-weight="bold" text-anchor="middle" fill="#78350f">IDS / IPS</text>
  <text x="375" y="1010" font-size="8" text-anchor="middle" fill="#92400e">Snort / Suricata rules</text>
  <text x="375" y="1022" font-size="7" text-anchor="middle" fill="#a16207">Signature matching only</text>

  <rect x="495" y="975" width="200" height="50" rx="6" fill="white" stroke="#ca8a04" stroke-width="1.5"/>
  <text x="595" y="995" font-size="10" font-weight="bold" text-anchor="middle" fill="#78350f">Antivirus / EDR</text>
  <text x="595" y="1010" font-size="8" text-anchor="middle" fill="#92400e">Signature + heuristic</text>
  <text x="595" y="1022" font-size="7" text-anchor="middle" fill="#a16207">Misses living-off-the-land</text>

  <rect x="715" y="975" width="200" height="50" rx="6" fill="white" stroke="#ca8a04" stroke-width="1.5"/>
  <text x="815" y="995" font-size="10" font-weight="bold" text-anchor="middle" fill="#78350f">Email Gateway</text>
  <text x="815" y="1010" font-size="8" text-anchor="middle" fill="#92400e">Spam/phishing filter</text>

  <rect x="935" y="975" width="200" height="50" rx="6" fill="white" stroke="#ca8a04" stroke-width="1.5"/>
  <text x="1035" y="995" font-size="10" font-weight="bold" text-anchor="middle" fill="#78350f">WAF</text>
  <text x="1035" y="1010" font-size="8" text-anchor="middle" fill="#92400e">Web application firewall</text>

  <rect x="1155" y="975" width="200" height="50" rx="6" fill="white" stroke="#ca8a04" stroke-width="1.5"/>
  <text x="1255" y="995" font-size="10" font-weight="bold" text-anchor="middle" fill="#78350f">Group Policy (GPO)</text>
  <text x="1255" y="1010" font-size="8" text-anchor="middle" fill="#92400e">Security baselines</text>

  <!-- GAP annotation -->
  <rect x="55" y="1040" width="1300" height="26" rx="4" fill="#fee2e2" stroke="#dc2626" stroke-width="1.5"/>
  <text x="705" y="1058" font-size="9" font-weight="bold" text-anchor="middle" fill="#991b1b">⚠ GAP: These tools CANNOT detect credential-based lateral movement using valid credentials or covert DNS exfiltration — attackers use legitimate tools ("living off the land")</text>

  <!-- Arrows: Layer 1 → Layer 2 -->
  <line x1="400" y1="1150" x2="400" y2="1085" stroke="#64748b" stroke-width="1.5" marker-end="url(#ad1)"/>
  <line x1="750" y1="1150" x2="750" y2="1085" stroke="#64748b" stroke-width="1.5" marker-end="url(#ad1)"/>
  <line x1="1100" y1="1150" x2="1100" y2="1085" stroke="#64748b" stroke-width="1.5" marker-end="url(#ad1)"/>

  <!-- ════════════════════════════════════════════════════════════════ -->
  <!-- LAYER 3: DATA COLLECTION (Sysmon + Wazuh Agent)                -->
  <!-- ════════════════════════════════════════════════════════════════ -->
  <rect x="30" y="760" width="1440" height="140" rx="10" fill="#dbeafe" stroke="#2563eb" stroke-width="2"/>
  <rect x="30" y="760" width="1440" height="28" rx="10" fill="#2563eb"/>
  <rect x="30" y="780" width="1440" height="8" fill="#2563eb"/>
  <text x="750" y="780" font-size="14" font-weight="bold" text-anchor="middle" fill="white">LAYER 3: Endpoint Telemetry Collection (Deployed by This Project)</text>
  <text x="750" y="798" font-size="10" text-anchor="middle" fill="#1e40af">Deep visibility layer — captures what existing security tools miss</text>

  <rect x="55" y="815" width="300" height="65" rx="6" fill="white" stroke="#3b82f6" stroke-width="1.5"/>
  <text x="205" y="835" font-size="11" font-weight="bold" text-anchor="middle" fill="#1e40af">Sysmon v15 (sysmon_config.xml)</text>
  <text x="205" y="850" font-size="8" text-anchor="middle" fill="#2563eb">EID 1: Process creation • EID 3: Network connection</text>
  <text x="205" y="862" font-size="8" text-anchor="middle" fill="#2563eb">EID 10: LSASS access (credential dump) • EID 22: DNS query</text>
  <text x="205" y="874" font-size="8" text-anchor="middle" fill="#dc2626">Fills visibility gaps that AV/EDR misses</text>

  <rect x="375" y="815" width="300" height="65" rx="6" fill="white" stroke="#3b82f6" stroke-width="1.5"/>
  <text x="525" y="835" font-size="11" font-weight="bold" text-anchor="middle" fill="#1e40af">Windows Audit Policies</text>
  <text x="525" y="850" font-size="8" text-anchor="middle" fill="#2563eb">4624/4625: Logon success/fail • 4648: Explicit credentials (PtH)</text>
  <text x="525" y="862" font-size="8" text-anchor="middle" fill="#2563eb">4768/4769: Kerberos tickets • 4104: PowerShell ScriptBlock</text>
  <text x="525" y="874" font-size="8" text-anchor="middle" fill="#dc2626">Authentication events for lateral movement detection</text>

  <rect x="695" y="815" width="320" height="65" rx="6" fill="white" stroke="#3b82f6" stroke-width="1.5"/>
  <text x="855" y="835" font-size="11" font-weight="bold" text-anchor="middle" fill="#1e40af">Wazuh Agent (deploy_endpoint.ps1)</text>
  <text x="855" y="850" font-size="8" text-anchor="middle" fill="#2563eb">Collects Sysmon + WinEvents • PII anonymization (ossec.conf)</text>
  <text x="855" y="862" font-size="8" text-anchor="middle" fill="#2563eb">Ships encrypted (AES-256) to Wazuh Manager on port 1514</text>
  <text x="855" y="874" font-size="8" text-anchor="middle" fill="#dc2626">Deployed via GPO or PowerShell script across all endpoints</text>

  <!-- Existing tool logs also flow up -->
  <rect x="1035" y="815" width="320" height="65" rx="6" fill="white" stroke="#ca8a04" stroke-width="1.5"/>
  <text x="1195" y="835" font-size="11" font-weight="bold" text-anchor="middle" fill="#78350f">Existing Tool Log Forwarding</text>
  <text x="1195" y="850" font-size="8" text-anchor="middle" fill="#92400e">Firewall logs, IDS/IPS alerts, proxy logs</text>
  <text x="1195" y="862" font-size="8" text-anchor="middle" fill="#92400e">also forwarded to Wazuh via syslog/Filebeat</text>
  <text x="1195" y="874" font-size="8" text-anchor="middle" fill="#92400e">(existing integration — not new to this project)</text>

  <!-- Arrows: Layer 2 → Layer 3 -->
  <line x1="300" y1="918" x2="300" y2="898" stroke="#2563eb" stroke-width="1.5" marker-end="url(#ad1)"/>
  <line x1="700" y1="918" x2="700" y2="898" stroke="#2563eb" stroke-width="1.5" marker-end="url(#ad1)"/>
  <line x1="1100" y1="918" x2="1100" y2="898" stroke="#ca8a04" stroke-width="1.5" marker-end="url(#ad1)"/>

  <!-- ════════════════════════════════════════════════════════════════ -->
  <!-- LAYER 4: WAZUH SIEM (Central Aggregation)                      -->
  <!-- ════════════════════════════════════════════════════════════════ -->
  <rect x="30" y="590" width="1440" height="150" rx="10" fill="#fef3c7" stroke="#d97706" stroke-width="2.5"/>
  <rect x="30" y="590" width="1440" height="28" rx="10" fill="#d97706"/>
  <rect x="30" y="610" width="1440" height="8" fill="#d97706"/>
  <text x="750" y="610" font-size="14" font-weight="bold" text-anchor="middle" fill="white">LAYER 4: Wazuh SIEM — Central Log Aggregation &amp; Correlation</text>
  <text x="750" y="628" font-size="10" text-anchor="middle" fill="#78350f">Already deployed in enterprise • Rule-based detection + log indexing • REST API enables AI Platform integration</text>

  <rect x="55" y="645" width="260" height="50" rx="6" fill="white" stroke="#f59e0b" stroke-width="1.5"/>
  <text x="185" y="665" font-size="10" font-weight="bold" text-anchor="middle" fill="#92400e">Wazuh Manager</text>
  <text x="185" y="680" font-size="8" text-anchor="middle" fill="#b45309">Receives all agent telemetry</text>
  <text x="185" y="692" font-size="8" text-anchor="middle" fill="#b45309">Rule-based correlation (3000+ rules)</text>

  <rect x="335" y="645" width="260" height="50" rx="6" fill="white" stroke="#f59e0b" stroke-width="1.5"/>
  <text x="465" y="665" font-size="10" font-weight="bold" text-anchor="middle" fill="#92400e">Wazuh Indexer (OpenSearch)</text>
  <text x="465" y="680" font-size="8" text-anchor="middle" fill="#b45309">Event storage + full-text search</text>
  <text x="465" y="692" font-size="8" text-anchor="middle" fill="#b45309">30–90 day log retention</text>

  <rect x="615" y="645" width="260" height="50" rx="6" fill="white" stroke="#f59e0b" stroke-width="1.5"/>
  <text x="745" y="665" font-size="10" font-weight="bold" text-anchor="middle" fill="#92400e">REST API (:55000)</text>
  <text x="745" y="680" font-size="8" text-anchor="middle" fill="#b45309">Bidirectional integration point</text>
  <text x="745" y="692" font-size="8" text-anchor="middle" fill="#dc2626">← AI Platform reads events here</text>

  <rect x="895" y="645" width="260" height="50" rx="6" fill="white" stroke="#f59e0b" stroke-width="1.5"/>
  <text x="1025" y="665" font-size="10" font-weight="bold" text-anchor="middle" fill="#92400e">Wazuh Dashboard (:5601)</text>
  <text x="1025" y="680" font-size="8" text-anchor="middle" fill="#b45309">SOC analyst alert console</text>
  <text x="1025" y="692" font-size="8" text-anchor="middle" fill="#dc2626">→ AI-enriched alerts appear here</text>

  <rect x="1175" y="645" width="260" height="50" rx="6" fill="#fef3c7" stroke="#d97706" stroke-width="1.5"/>
  <text x="1305" y="665" font-size="10" font-weight="bold" text-anchor="middle" fill="#92400e">Wazuh Rule Engine</text>
  <text x="1305" y="680" font-size="8" text-anchor="middle" fill="#b45309">Known-signature alerts</text>
  <text x="1305" y="692" font-size="8" text-anchor="middle" fill="#a16207">Effective but blind to novel TTPs</text>

  <!-- Arrows: Layer 3 → Layer 4 -->
  <line x1="300" y1="758" x2="300" y2="740" stroke="#2563eb" stroke-width="2" marker-end="url(#ad1)"/>
  <text x="315" y="752" font-size="8" fill="#2563eb">Encrypted telemetry</text>
  <line x1="850" y1="758" x2="850" y2="740" stroke="#2563eb" stroke-width="2" marker-end="url(#ad1)"/>
  <line x1="1200" y1="758" x2="1200" y2="740" stroke="#ca8a04" stroke-width="1.5" marker-end="url(#ad1)"/>
  <text x="1215" y="752" font-size="8" fill="#ca8a04">Existing syslog</text>

  <!-- ════════════════════════════════════════════════════════════════ -->
  <!-- LAYER 5: AI THREAT HUNTING PLATFORM ⭐ (THIS PROJECT)          -->
  <!-- ════════════════════════════════════════════════════════════════ -->
  <rect x="30" y="245" width="1100" height="325" rx="10" fill="#dcfce7" stroke="#16a34a" stroke-width="3"/>
  <rect x="30" y="245" width="1100" height="30" rx="10" fill="#16a34a"/>
  <rect x="30" y="267" width="1100" height="8" fill="#16a34a"/>
  <text x="580" y="267" font-size="14" font-weight="bold" text-anchor="middle" fill="white">LAYER 5: ⭐ AI Threat Hunting Platform (This Project) — Augments Layer 4</text>
  <text x="580" y="286" font-size="10" text-anchor="middle" fill="#14532d">ML-based behavioral detection of threats that rule-based systems cannot see</text>

  <!-- Bidirectional arrow between Layer 4 and Layer 5 -->
  <line x1="500" y1="588" x2="500" y2="572" stroke="#16a34a" stroke-width="3" marker-end="url(#ad2)"/>
  <line x1="540" y1="572" x2="540" y2="588" stroke="#dc2626" stroke-width="3" marker-end="url(#ad3)"/>
  <text x="420" y="583" font-size="9" font-weight="bold" fill="#16a34a">Events ↑</text>
  <text x="590" y="583" font-size="9" font-weight="bold" fill="#dc2626">↓ Enriched Alerts</text>
  <rect x="440" y="558" width="160" height="14" rx="3" fill="#fee2e2" stroke="#dc2626" stroke-width="1"/>
  <text x="520" y="569" font-size="8" text-anchor="middle" fill="#991b1b">«HTTPS, JWT, bidirectional»</text>

  <!-- Platform modules arranged as pipeline -->

  <!-- Ingestion -->
  <rect x="50" y="300" width="140" height="70" rx="6" fill="#22c55e" stroke="#15803d" stroke-width="1.5"/>
  <text x="120" y="320" font-size="10" font-weight="bold" text-anchor="middle" fill="white">① Ingestion</text>
  <text x="120" y="335" font-size="8" text-anchor="middle" fill="white">Wazuh API polling</text>
  <text x="120" y="347" font-size="8" text-anchor="middle" fill="white">Input validation</text>
  <text x="120" y="359" font-size="7" text-anchor="middle" fill="#bbf7d0">Circuit breaker</text>

  <line x1="192" y1="335" x2="210" y2="335" stroke="white" stroke-width="2" marker-end="url(#ad2)"/>

  <!-- Feature Engineering -->
  <rect x="215" y="300" width="140" height="70" rx="6" fill="#4ade80" stroke="#15803d" stroke-width="1.5"/>
  <text x="285" y="320" font-size="10" font-weight="bold" text-anchor="middle" fill="#14532d">② Features</text>
  <text x="285" y="335" font-size="8" text-anchor="middle" fill="#14532d">6 extractors (54 feat)</text>
  <text x="285" y="347" font-size="8" text-anchor="middle" fill="#14532d">Auth, DNS, Process</text>
  <text x="285" y="359" font-size="7" text-anchor="middle" fill="#166534">LRU cache</text>

  <line x1="357" y1="335" x2="375" y2="335" stroke="#14532d" stroke-width="2" marker-end="url(#ad2)"/>

  <!-- Detection Engine -->
  <rect x="380" y="295" width="170" height="80" rx="6" fill="#22c55e" stroke="#15803d" stroke-width="2"/>
  <text x="465" y="315" font-size="10" font-weight="bold" text-anchor="middle" fill="white">③ Detection Engine</text>
  <rect x="390" y="325" width="72" height="22" rx="3" fill="#166534"/>
  <text x="426" y="340" font-size="7" font-weight="bold" text-anchor="middle" fill="white">XGBoost LM</text>
  <rect x="468" y="325" width="72" height="22" rx="3" fill="#166534"/>
  <text x="504" y="340" font-size="7" font-weight="bold" text-anchor="middle" fill="white">XGBoost DNS</text>
  <text x="465" y="360" font-size="7" text-anchor="middle" fill="white">Plugin registry + SHAP</text>
  <text x="465" y="372" font-size="7" text-anchor="middle" fill="#bbf7d0">Model integrity (HMAC)</text>

  <line x1="552" y1="335" x2="570" y2="335" stroke="white" stroke-width="2" marker-end="url(#ad2)"/>

  <!-- Threat Intel -->
  <rect x="575" y="300" width="140" height="70" rx="6" fill="#4ade80" stroke="#15803d" stroke-width="1.5"/>
  <text x="645" y="320" font-size="10" font-weight="bold" text-anchor="middle" fill="#14532d">④ Threat Intel</text>
  <text x="645" y="335" font-size="8" text-anchor="middle" fill="#14532d">MITRE ATT&amp;CK map</text>
  <text x="645" y="347" font-size="8" text-anchor="middle" fill="#14532d">MISP IoC correlation</text>
  <text x="645" y="359" font-size="7" text-anchor="middle" fill="#166534">Response actions</text>

  <line x1="717" y1="335" x2="735" y2="335" stroke="#14532d" stroke-width="2" marker-end="url(#ad2)"/>

  <!-- Alert Management -->
  <rect x="740" y="300" width="140" height="70" rx="6" fill="#22c55e" stroke="#15803d" stroke-width="1.5"/>
  <text x="810" y="320" font-size="10" font-weight="bold" text-anchor="middle" fill="white">⑤ Alert Mgmt</text>
  <text x="810" y="335" font-size="8" text-anchor="middle" fill="white">Score, deduplicate</text>
  <text x="810" y="347" font-size="8" text-anchor="middle" fill="white">SQLite persistence</text>
  <text x="810" y="359" font-size="7" text-anchor="middle" fill="#bbf7d0">→ Wazuh Dashboard</text>

  <line x1="882" y1="335" x2="900" y2="335" stroke="white" stroke-width="2" marker-end="url(#ad2)"/>

  <!-- Visualization -->
  <rect x="905" y="300" width="140" height="70" rx="6" fill="#4ade80" stroke="#15803d" stroke-width="1.5"/>
  <text x="975" y="320" font-size="10" font-weight="bold" text-anchor="middle" fill="#14532d">⑥ Attack Graph</text>
  <text x="975" y="335" font-size="8" text-anchor="middle" fill="#14532d">NetworkX + pyvis</text>
  <text x="975" y="347" font-size="8" text-anchor="middle" fill="#14532d">Interactive HTML</text>
  <text x="975" y="359" font-size="7" text-anchor="middle" fill="#166534">Port :8080</text>

  <!-- Cross-cutting security bar -->
  <rect x="50" y="390" width="995" height="35" rx="5" fill="#fee2e2" stroke="#dc2626" stroke-width="1.5"/>
  <text x="547" y="408" font-size="9" font-weight="bold" text-anchor="middle" fill="#991b1b">🔒 Security Layer: RBAC (4 roles, 11 permissions) • JWT/API-Key Auth • Model Integrity (HMAC-SHA256) • Hash-Chained Audit Trail • Input Sanitization (6-layer)</text>
  <text x="547" y="420" font-size="8" text-anchor="middle" fill="#991b1b">Event Bus (async pub/sub) • Structured JSON Logging (correlation IDs) • Health Checks • Drift Monitoring • Dead Letter Queue</text>

  <!-- Platform pipeline label -->
  <rect x="50" y="440" width="995" height="30" rx="5" fill="#ecfdf5" stroke="#6ee7b7" stroke-width="1"/>
  <text x="547" y="460" font-size="9" text-anchor="middle" fill="#14532d">NormalizedEvent → FeatureVector → Detection → EnrichedAlert → Wazuh Dashboard + Attack Graph (Pydantic schema contracts between every module)</text>

  <!-- Docker label -->
  <rect x="50" y="480" width="995" height="25" rx="5" fill="#e2e8f0" stroke="#94a3b8" stroke-width="1"/>
  <text x="547" y="498" font-size="9" text-anchor="middle" fill="#475569">Deployed as Docker containers: api + visualization on internal-net • All configs via YAML • docker compose up -d</text>

  <!-- What existing tools miss annotation -->
  <rect x="50" y="515" width="995" height="40" rx="5" fill="#fff7ed" stroke="#f59e0b" stroke-width="1.5"/>
  <text x="547" y="532" font-size="9" font-weight="bold" text-anchor="middle" fill="#92400e">What This Layer Detects That Layers 2–4 Cannot:</text>
  <text x="547" y="546" font-size="8.5" text-anchor="middle" fill="#78350f">✓ Credential-based lateral movement using valid accounts (Pass-the-Hash, Kerberos abuse) — invisible to signature-based tools</text>
  <text x="547" y="558" font-size="8.5" text-anchor="middle" fill="#78350f">✓ Covert DNS exfiltration (dns tunneling via high-entropy queries, TXT record abuse) — bypasses firewalls entirely</text>

  <!-- ════════════════════════════════════════════════════════════════ -->
  <!-- LAYER 6: FEDERATED LEARNING (Cross-Organization)               -->
  <!-- ════════════════════════════════════════════════════════════════ -->
  <rect x="1150" y="245" width="320" height="325" rx="10" fill="#f5f3ff" stroke="#7c3aed" stroke-width="2.5"/>
  <rect x="1150" y="245" width="320" height="28" rx="10" fill="#7c3aed"/>
  <rect x="1150" y="265" width="320" height="8" fill="#7c3aed"/>
  <text x="1310" y="265" font-size="12" font-weight="bold" text-anchor="middle" fill="white">LAYER 6: Federated</text>
  <text x="1310" y="280" font-size="12" font-weight="bold" text-anchor="middle" fill="white">Learning</text>
  <text x="1310" y="296" font-size="9" text-anchor="middle" fill="#5b21b6">Cross-org collaboration</text>

  <rect x="1165" y="310" width="290" height="40" rx="5" fill="white" stroke="#a78bfa" stroke-width="1.5"/>
  <text x="1310" y="328" font-size="9" font-weight="bold" text-anchor="middle" fill="#5b21b6">Flower FL Server</text>
  <text x="1310" y="342" font-size="8" text-anchor="middle" fill="#6d28d9">Federated Bagging aggregation</text>

  <rect x="1165" y="360" width="140" height="35" rx="4" fill="#ede9fe" stroke="#a78bfa" stroke-width="1"/>
  <text x="1235" y="378" font-size="8" font-weight="bold" text-anchor="middle" fill="#5b21b6">UDOM (real)</text>
  <text x="1235" y="390" font-size="7" text-anchor="middle" fill="#6d28d9">FL Client</text>

  <rect x="1315" y="360" width="140" height="35" rx="4" fill="#ede9fe" stroke="#a78bfa" stroke-width="1"/>
  <text x="1385" y="378" font-size="8" font-weight="bold" text-anchor="middle" fill="#5b21b6">Hospital (sim)</text>
  <text x="1385" y="390" font-size="7" text-anchor="middle" fill="#6d28d9">FL Client</text>

  <rect x="1230" y="405" width="160" height="35" rx="4" fill="#ede9fe" stroke="#a78bfa" stroke-width="1"/>
  <text x="1310" y="423" font-size="8" font-weight="bold" text-anchor="middle" fill="#5b21b6">Bank (sim) — FL Client</text>

  <!-- FL security -->
  <rect x="1165" y="450" width="290" height="28" rx="4" fill="#fee2e2" stroke="#dc2626" stroke-width="1"/>
  <text x="1310" y="464" font-size="8" text-anchor="middle" fill="#991b1b">🔒 DP ε=1.0 • Trust scoring • Byzantine tolerance</text>
  <text x="1310" y="475" font-size="7" text-anchor="middle" fill="#dc2626">No raw data crosses org boundary</text>

  <rect x="1165" y="490" width="290" height="28" rx="4" fill="#f5f3ff" stroke="#a78bfa" stroke-width="1"/>
  <text x="1310" y="508" font-size="8" text-anchor="middle" fill="#5b21b6">Output: Improved global XGBoost model</text>
  <text x="1310" y="518" font-size="8" text-anchor="middle" fill="#5b21b6">→ hot-reloaded into Detection Engine</text>

  <!-- Arrow: FL → Platform (model update) -->
  <line x1="1148" y1="505" x2="1060" y2="400" stroke="#7c3aed" stroke-width="2" stroke-dasharray="6,3" marker-end="url(#ad4)"/>
  <text x="1080" y="445" font-size="8" fill="#7c3aed" transform="rotate(-40,1080,445)">Global model update</text>

  <!-- Arrow: Platform → FL (local training data context) -->
  <line x1="1060" y1="370" x2="1148" y2="370" stroke="#7c3aed" stroke-width="2" stroke-dasharray="6,3" marker-end="url(#ad4)"/>
  <text x="1100" y="362" font-size="8" fill="#7c3aed">Local training</text>

  <!-- ════════════════════════════════════════════════════════════════ -->
  <!-- LAYER 7: SECURITY OPERATIONS CENTER                            -->
  <!-- ════════════════════════════════════════════════════════════════ -->
  <rect x="30" y="70" width="1440" height="155" rx="10" fill="#dbeafe" stroke="#1e40af" stroke-width="2.5"/>
  <rect x="30" y="70" width="1440" height="28" rx="10" fill="#1e40af"/>
  <rect x="30" y="90" width="1440" height="8" fill="#1e40af"/>
  <text x="750" y="90" font-size="14" font-weight="bold" text-anchor="middle" fill="white">LAYER 7: Security Operations Center (SOC) — Human Decision Layer</text>
  <text x="750" y="108" font-size="10" text-anchor="middle" fill="#1e40af">Analysts receive AI-enriched alerts alongside existing Wazuh alerts — unified view, better context, faster response</text>

  <!-- SOC activities -->
  <rect x="55" y="120" width="210" height="55" rx="6" fill="white" stroke="#3b82f6" stroke-width="1.5"/>
  <text x="160" y="140" font-size="10" font-weight="bold" text-anchor="middle" fill="#1e3a8a">Alert Triage</text>
  <text x="160" y="155" font-size="8" text-anchor="middle" fill="#2563eb">Wazuh Dashboard (:5601)</text>
  <text x="160" y="167" font-size="8" text-anchor="middle" fill="#2563eb">AI alerts + standard alerts unified</text>

  <rect x="285" y="120" width="210" height="55" rx="6" fill="white" stroke="#3b82f6" stroke-width="1.5"/>
  <text x="390" y="140" font-size="10" font-weight="bold" text-anchor="middle" fill="#1e3a8a">Investigation</text>
  <text x="390" y="155" font-size="8" text-anchor="middle" fill="#2563eb">SHAP feature explanations</text>
  <text x="390" y="167" font-size="8" text-anchor="middle" fill="#2563eb">Attack graph tracing (:8080)</text>

  <rect x="515" y="120" width="210" height="55" rx="6" fill="white" stroke="#3b82f6" stroke-width="1.5"/>
  <text x="620" y="140" font-size="10" font-weight="bold" text-anchor="middle" fill="#1e3a8a">Response</text>
  <text x="620" y="155" font-size="8" text-anchor="middle" fill="#2563eb">MITRE-mapped response actions</text>
  <text x="620" y="167" font-size="8" text-anchor="middle" fill="#2563eb">Isolate hosts, reset credentials</text>

  <rect x="745" y="120" width="210" height="55" rx="6" fill="white" stroke="#3b82f6" stroke-width="1.5"/>
  <text x="850" y="140" font-size="10" font-weight="bold" text-anchor="middle" fill="#1e3a8a">Forensics</text>
  <text x="850" y="155" font-size="8" text-anchor="middle" fill="#2563eb">Attack path reconstruction</text>
  <text x="850" y="167" font-size="8" text-anchor="middle" fill="#2563eb">Timeline, evidence export</text>

  <rect x="975" y="120" width="210" height="55" rx="6" fill="white" stroke="#3b82f6" stroke-width="1.5"/>
  <text x="1080" y="140" font-size="10" font-weight="bold" text-anchor="middle" fill="#1e3a8a">Feedback Loop</text>
  <text x="1080" y="155" font-size="8" text-anchor="middle" fill="#2563eb">FP/TP feedback → retrain models</text>
  <text x="1080" y="167" font-size="8" text-anchor="middle" fill="#2563eb">Threshold tuning via YAML config</text>

  <rect x="1205" y="120" width="210" height="55" rx="6" fill="#fee2e2" stroke="#dc2626" stroke-width="1.5"/>
  <text x="1310" y="140" font-size="10" font-weight="bold" text-anchor="middle" fill="#991b1b">Audit Trail</text>
  <text x="1310" y="155" font-size="8" text-anchor="middle" fill="#dc2626">All actions hash-chain logged</text>
  <text x="1310" y="167" font-size="8" text-anchor="middle" fill="#dc2626">Tamper-evident, admin-viewable</text>

  <!-- Arrows: Platform → SOC -->
  <line x1="400" y1="243" x2="400" y2="228" stroke="#16a34a" stroke-width="2.5" marker-end="url(#ad2)"/>
  <line x1="800" y1="243" x2="800" y2="228" stroke="#16a34a" stroke-width="2.5" marker-end="url(#ad2)"/>
  <text x="600" y="238" font-size="9" font-weight="bold" fill="#16a34a">AI-enriched alerts + attack graphs + SHAP explanations ↑</text>

  <!-- Arrows: Wazuh rules → SOC (existing path) -->
  <path d="M 1305 643 Q 1380 500 1380 228" stroke="#d97706" stroke-width="2" marker-end="url(#ad1)"/>
  <text x="1400" y="450" font-size="8" fill="#d97706" transform="rotate(-90,1400,450)">Existing Wazuh rule alerts (direct)</text>

  <!-- ══ LEGEND ══ -->
  <rect x="30" y="1290" width="1440" height="45" rx="6" fill="#f8fafc" stroke="#94a3b8" stroke-width="1"/>
  <text x="60" y="1310" font-size="9" font-weight="bold" fill="#0f172a">Legend:</text>
  <rect x="110" y="1300" width="50" height="16" rx="4" fill="#dcfce7" stroke="#16a34a" stroke-width="2"/>
  <text x="168" y="1313" font-size="9" fill="#334155">This Project (new)</text>
  <rect x="280" y="1300" width="50" height="16" rx="4" fill="#fef3c7" stroke="#d97706" stroke-width="1.5"/>
  <text x="338" y="1313" font-size="9" fill="#334155">Wazuh SIEM (existing)</text>
  <rect x="460" y="1300" width="50" height="16" rx="4" fill="#fef9c3" stroke="#ca8a04" stroke-width="1.5"/>
  <text x="518" y="1313" font-size="9" fill="#334155">Existing security tools</text>
  <rect x="650" y="1300" width="50" height="16" rx="4" fill="#f5f3ff" stroke="#7c3aed" stroke-width="1.5"/>
  <text x="708" y="1313" font-size="9" fill="#334155">Federated Learning</text>
  <rect x="820" y="1300" width="50" height="16" rx="4" fill="#fee2e2" stroke="#dc2626" stroke-width="1.5"/>
  <text x="878" y="1313" font-size="9" fill="#334155">Security controls</text>
  <rect x="990" y="1300" width="50" height="16" rx="4" fill="#dbeafe" stroke="#2563eb" stroke-width="1.5"/>
  <text x="1048" y="1313" font-size="9" fill="#334155">Endpoint / SOC</text>
  <line x1="1150" y1="1308" x2="1200" y2="1308" stroke="#334155" stroke-width="2" marker-end="url(#ad1)"/>
  <text x="1208" y="1313" font-size="9" fill="#334155">Data flow</text>
  <line x1="1290" y1="1308" x2="1340" y2="1308" stroke="#7c3aed" stroke-width="2" stroke-dasharray="5,3" marker-end="url(#ad4)"/>
  <text x="1348" y="1313" font-size="9" fill="#334155">FL model exchange</text>
</svg>
